PathFileType	4	(X/Y/Z)	Kaydara	
DataRate	CameraRate	NumFrames	NumMarkers	Units	OrigDataRate	OrigDataStartFrame	OrigNumFrames	
120.00	120.00	4	72	mm	120.00	168	268	
Frame#	Time	Hips			RightUpLeg			RightLeg			RightFoot			RightFoot_End			LeftUpLeg			LeftLeg			LeftFoot			LeftFoot_End			Spine			Spine1			Spine2			Spine3			Neck			Head			Head_End			RightShoulder			RightArm			RightForeArm			RightHand			RightHandThumb1			RightHandThumb2			RightHandThumb3			RightHandThumb3_End			RightInHandIndex			RightHandIndex1			RightHandIndex2			RightHandIndex3			RightHandIndex3_End			RightInHandMiddle			RightHandMiddle1			RightHandMiddle2			RightHandMiddle3			RightHandMiddle3_End			RightInHandRing			RightHandRing1			RightHandRing2			RightHandRing3			RightHandRing3_End			RightInHandPinky			RightHandPinky1			RightHandPinky2			RightHandPinky3			RightHandPinky3_End			LeftShoulder			LeftArm			LeftForeArm			LeftHand			LeftHandThumb1			LeftHandThumb2			LeftHandThumb3			LeftHandThumb3_End			LeftInHandIndex			LeftHandIndex1			LeftHandIndex2			LeftHandIndex3			LeftHandIndex3_End			LeftInHandMiddle			LeftHandMiddle1			LeftHandMiddle2			LeftHandMiddle3			LeftHandMiddle3_End			LeftInHandRing			LeftHandRing1			LeftHandRing2			LeftHandRing3			LeftHandRing3_End			LeftInHandPinky			LeftHandPinky1			LeftHandPinky2			LeftHandPinky3			LeftHandPinky3_End			
		X1	Y1	Z1	X2	Y2	Z2	X3	Y3	Z3	X4	Y4	Z4	X5	Y5	Z5	X6	Y6	Z6	X7	Y7	Z7	X8	Y8	Z8	X9	Y9	Z9	X10	Y10	Z10	X11	Y11	Z11	X12	Y12	Z12	X13	Y13	Z13	X14	Y14	Z14	X15	Y15	Z15	X16	Y16	Z16	X17	Y17	Z17	X18	Y18	Z18	X19	Y19	Z19	X20	Y20	Z20	X21	Y21	Z21	X22	Y22	Z22	X23	Y23	Z23	X24	Y24	Z24	X25	Y25	Z25	X26	Y26	Z26	X27	Y27	Z27	X28	Y28	Z28	X29	Y29	Z29	X30	Y30	Z30	X31	Y31	Z31	X32	Y32	Z32	X33	Y33	Z33	X34	Y34	Z34	X35	Y35	Z35	X36	Y36	Z36	X37	Y37	Z37	X38	Y38	Z38	X39	Y39	Z39	X40	Y40	Z40	X41	Y41	Z41	X42	Y42	Z42	X43	Y43	Z43	X44	Y44	Z44	X45	Y45	Z45	X46	Y46	Z46	X47	Y47	Z47	X48	Y48	Z48	X49	Y49	Z49	X50	Y50	Z50	X51	Y51	Z51	X52	Y52	Z52	X53	Y53	Z53	X54	Y54	Z54	X55	Y55	Z55	X56	Y56	Z56	X57	Y57	Z57	X58	Y58	Z58	X59	Y59	Z59	X60	Y60	Z60	X61	Y61	Z61	X62	Y62	Z62	X63	Y63	Z63	X64	Y64	Z64	X65	Y65	Z65	X66	Y66	Z66	X67	Y67	Z67	X68	Y68	Z68	X69	Y69	Z69	X70	Y70	Z70	X71	Y71	Z71	X72	Y72	Z72	

168	1.392	3446.805	859.65103	-201.189	3492.952135253628	844.3582364951777	-236.2167400559768	3403.9582822515617	442.78097052035946	-267.74858804665035	3483.280653144444	70.10293142473999	-390.4044469192568	3460.0647357005623	-27.055248843261236	-251.42800315269062	3407.899673849184	846.2890262788646	-152.77593988097044	3283.6672310355157	455.69633337150844	-70.77066697979178	3213.076512464864	77.94229951526677	88.43594262428951	3270.145502876416	25.251372814546443	259.89397366653395	3412.29976348927	985.7567379459383	-257.5886662195924	3365.7293282963046	1059.3965878138401	-299.42557801414256	3311.8480541938825	1132.2083725905418	-342.8228959103201	3252.528452300875	1195.166151698591	-384.4600117617886	3188.1684387620708	1262.2899045814202	-424.9946905085759	3145.397604498099	1335.9736057412388	-386.4860340421094	3123.599760871468	1427.5196646221561	-260.3955844116115	3218.2373848062134	1243.2774941477621	-424.0960294255459	3258.628430431249	1242.9948985094823	-466.34525875908537	3350.1460629488947	1086.2318861908745	-434.1307680534232	3411.195001485796	1076.9761391840295	-501.7962939632133	3418.644420531433	1100.486986417809	-504.206715218954	3421.1142531009527	1115.044666874164	-516.4421381382789	3423.4362615995865	1122.1449340296153	-525.2179400065785	3425.8870246036977	1125.4654492735576	-532.7521447365864	3422.3487799420836	1092.0110090273931	-504.4706407173707	3437.8908717691857	1102.6116693067252	-513.2788166042368	3444.097826480788	1108.6197794837944	-524.0638024398046	3443.7304917937013	1113.2555280074685	-532.4329074230859	3440.5757539267165	1117.6999548315466	-540.4824959762853	3423.2261458309777	1083.3149276354216	-505.0790541803278	3438.8613186844436	1088.9511668067832	-513.998046935735	3445.693935425543	1094.3236851173392	-525.8241335950647	3445.2793474264286	1099.348609744149	-535.9487610277906	3441.84138315294	1103.9355189656792	-544.7698899740626	3423.5032200804426	1076.8967828816901	-505.2402733134912	3437.913458824204	1076.3653041567811	-513.2451302336185	3443.904472332982	1079.8294908788957	-523.5980158723193	3443.523505765912	1084.0293242693278	-533.388043045291	3440.2999248098968	1088.0355317313313	-541.6935102515123	3422.9482730712252	1069.2227262720703	-505.51634810064405	3436.0087673221337	1063.994740490294	-512.8842531895397	3440.7985691352164	1064.870045803713	-521.2104302272884	3440.517025001224	1067.014962731168	-528.3687178007048	3437.659345618685	1070.0352315120901	-535.7360257895009	3200.5429495065764	1238.9377849095763	-398.156759998466	3176.3178249626594	1200.9760250638371	-354.7417111632296	3248.904072136939	1100.2555469361102	-442.446553017384	3352.5581059312276	1081.069129761101	-415.4839514068393	3355.7866974819235	1103.8339062169184	-418.5015276809174	3366.868740632137	1107.6485540305507	-432.1631634463577	3374.3830547551884	1107.6934697254376	-443.268479580811	3380.4735668254857	1105.4967533448853	-453.88785989138756	3354.535344947242	1097.9811585915438	-424.01852496454575	3360.351158290516	1107.9883849671016	-444.9760097631128	3368.7735860202256	1107.364671277903	-462.0410909124334	3376.125612409439	1104.1628382883296	-471.0896039428891	3383.6380594630555	1099.6145012377526	-477.5262210913498	3353.9881562132355	1090.169050991892	-427.7352135752532	3359.3635032955835	1095.706387911216	-450.1861674588196	3368.4684468741116	1093.9530696920617	-469.2330933718949	3377.2973264986026	1089.5753968219026	-480.35398425630956	3385.4973393854066	1084.3484325864551	-487.49606943020143	3353.4085605028527	1084.4563913639581	-429.8156368389449	3357.592336560182	1084.6412440106744	-451.71106863182354	3365.4327683380607	1082.0071969731864	-468.71211122484584	3373.898227847318	1077.1973066336127	-479.65133564513036	3381.584284290671	1072.0043461205894	-486.4672723179883	3352.9233734272602	1077.0941867982583	-431.68990819198825	3356.3138226799674	1072.936115863874	-452.8988923929107	3362.425291304587	1069.1003484946884	-467.0408201883107	3368.5193182249227	1064.7568230728082	-475.27540773777105	3375.2814616395453	1059.676054631906	-481.4602435022332
169	1.4	3446.805	859.65103	-201.189	3492.522925658225	844.1810518273167	-236.37983491455023	3404.1075506138986	442.4841623550914	-267.76513787960744	3483.8074721209005	70.26536003115741	-391.0302642073888	3461.2047346159534	-27.04634237184694	-252.20619410445033	3408.310089729981	846.4647970264859	-152.60370463310863	3283.9435244066235	455.96004769599637	-70.37423932828999	3213.4357991915163	77.91591438136051	88.32370245320772	3270.8178041475317	25.118774356494896	259.646318502308	3412.4077663380135	985.7739169961103	-257.61813682650717	3365.8855714966994	1059.4732041755126	-299.4103884319624	3312.0659820429064	1132.373361104109	-342.74840003117697	3252.8093987132074	1195.4462536044755	-384.31206110167176	3188.512101748728	1262.6850022842923	-424.7627304145015	3145.684173219279	1336.3731418150307	-386.3257966356572	3123.8784586396573	1427.990660299654	-260.3133798826535	3218.447124057825	1243.5814643679803	-423.8422268689051	3258.4211239668557	1243.1949808460834	-465.7856561832941	3349.2540896705727	1086.2933036377565	-432.81144487540826	3409.8059282971576	1077.693998182823	-499.90294906851875	3417.2713009281533	1101.282212011838	-502.24943697125093	3419.789689606828	1115.9085638326565	-514.4279514041316	3422.1356967834627	1123.0544089848881	-523.1650619338027	3424.5980710695417	1126.4109988304835	-530.6678127721251	3420.935363050144	1092.8067801574498	-502.5093122068993	3436.4323313013774	1103.511694835149	-511.22378896316945	3442.6430115797425	1109.5843533750763	-521.9518540317956	3442.3087695788167	1114.2495776576648	-530.2966235285613	3439.202183986069	1118.7112154041388	-538.3335264224868	3421.7892743027296	1084.1005812867043	-503.1239329365963	3437.3677392185346	1089.8330358929843	-511.95489153343544	3444.201515474821	1095.2743058523429	-523.7199989115619	3443.8254600432806	1100.3339855823356	-533.8158111474926	3440.4395055379346	1104.939335326048	-542.6233249217572	3422.050500315526	1077.6727155538388	-503.2918343061972	3436.3949009650087	1077.2192837171945	-511.2233102894283	3442.3840506587035	1080.7415206161852	-521.5243454170096	3442.038725415079	1084.9738834198602	-531.2872672335019	3438.863322001237	1088.9969586091327	-539.5802581684371	3421.481980439255	1069.9837472235365	-503.5790845613987	3434.472261239931	1064.8184785747194	-510.886222287732	3439.2563766509393	1065.7370051832077	-519.1732239466511	3438.9988005746263	1067.9040707760473	-526.3128766321562	3436.1826313759707	1070.9383712807953	-533.6697855145635	3200.983184166405	1239.3411396511694	-398.0156007277312	3177.117640156056	1201.704732855577	-354.8378850484148	3249.0052191551595	1100.6843312209955	-441.7686237443529	3351.6696962160195	1081.6917810201367	-414.69230684384524	3355.005027252486	1104.5082467716531	-417.56310236832286	3366.19524968229	1108.3542387991447	-431.01843131098514	3373.7916292745167	1108.4265649843903	-441.98453688602757	3379.956308860952	1106.2574742339914	-452.49167924038875	3353.791801969825	1098.6852817629663	-423.08764801736453	3359.835693785109	1108.8159152767394	-443.8271303103805	3368.394307218461	1108.2511905572758	-460.71367529692594	3375.7954513321615	1105.0571456792065	-469.6497483221236	3383.324575525869	1100.495773589469	-475.99232398270817	3353.253899803455	1090.8827806323811	-426.8227809294081	3358.856738310714	1096.5456893549783	-449.07108739031736	3368.1107449053893	1094.857569865526	-467.92630243811846	3376.999102798166	1090.4896945407372	-478.9130302760449	3385.217471746056	1085.2486618990865	-485.9529427400725	3352.675364448535	1085.1740922627955	-428.9220569995445	3357.0648684514636	1085.4759090368136	-450.6529978721173	3365.035329669414	1082.8993389065656	-467.49043653356944	3373.558216610981	1078.0992455933754	-478.3021047123823	3381.2615593163237	1072.8932202970575	-485.02285170318567	3352.182283696351	1077.8102583006753	-430.82233855207807	3355.7577010687855	1073.759619917412	-451.89728469069865	3361.972557571544	1069.9703829344776	-465.91436967783625	3368.108116165862	1065.6342455309552	-474.0588984587262	3374.885367551552	1060.5420423820497	-480.16112917968184
170	1.408	3446.805	859.65103	-201.189	3492.081646423754	843.947724885154	-236.62726595017764	3404.1952269405915	442.1442711271283	-267.80156214008235	3484.208662396074	70.37511875346985	-391.69140507035075	3462.2036812297124	-27.055039241957456	-253.01354593885634	3408.7298978385156	846.7018889133362	-152.33437779005266	3284.263337752496	456.2718163755885	-69.88416969982646	3213.7012784588696	78.04885166109987	88.44994793438288	3271.3896580578516	25.177278036341097	259.644422410343	3412.5280881037565	985.771823675626	-257.69814567556995	3366.053775592481	1059.5229614107527	-299.4570018604203	3312.293818383907	1132.5059553855053	-342.74103590714316	3253.096777590376	1195.6932457523724	-384.2275205985068	3188.8578113133367	1263.045645248101	-424.5898742563129	3145.9485908843035	1336.725523493133	-386.2248640806268	3124.124968779556	1428.395616935322	-260.2808200114397	3218.657804327153	1243.8450402092615	-423.6571620529656	3258.215065084645	1243.4118984567301	-465.21366278634736	3348.1709709008687	1086.1907495504142	-431.45286427602264	3408.166593837874	1078.2036728090168	-497.94800703130056	3415.6374073786824	1101.8582002258624	-500.229467670941	3418.191666863181	1116.553515990289	-512.3433612209698	3420.553475113604	1123.7467654284108	-521.0354531907564	3423.0211718759438	1127.1423397405244	-528.5006559833315	3419.2627495367974	1093.3873333736378	-500.4820738932051	3434.702176954249	1104.1951574897798	-509.09134746658447	3440.9065553286996	1110.3356075434488	-519.7528060232465	3440.5988579226755	1115.0334007138422	-528.0679710158976	3437.534789852111	1119.5155359036144	-536.0883312791316	3420.095304068917	1084.6756737124758	-501.1006184413666	3435.6060839158545	1090.5055510986967	-509.8310874489035	3442.430394160988	1096.0197356152607	-521.5243810355797	3442.085121833702	1101.1182012682154	-531.5848921060978	3438.7450864695893	1105.745733688964	-540.3745090192082	3420.3424966697676	1078.241380359171	-501.27389158784246	3434.6128432259356	1077.86984159266	-509.1197104437959	3440.5912072500387	1081.4543928780727	-519.3591986766179	3440.2742286588623	1085.7235119339168	-529.088625231408	3437.1413610632176	1089.7671326001569	-537.3650510320756	3419.76273122742	1070.5415871068908	-501.5710719352871	3432.676747033776	1065.4449743491236	-508.8054407107857	3437.448597287024	1066.4111137632246	-517.0451625126267	3437.209941503569	1068.6038838430486	-524.1613537938282	3434.4304426753692	1071.6557457249478	-531.5041469100046	3201.4305172949116	1239.7175276097032	-397.92711527153574	3177.930091465453	1202.4195459502814	-354.9495950365893	3248.874575192667	1100.81838828812	-441.1960271225671	3350.5437450453996	1082.061315703007	-414.04313133605467	3353.9921991286983	1104.9209534254842	-416.73322687864993	3365.3063185768965	1108.8028145685282	-429.96138117719283	3372.998437825749	1108.9083178042372	-440.77738380694825	3379.251019109161	1106.7738988979058	-451.1663222051613	3352.8276078530357	1099.1358137102254	-422.274609076882	3359.13490698333	1109.4012261269727	-442.77476396278985	3367.8535436417137	1108.906358375914	-459.4714048332128	3375.313251643588	1105.7254673555628	-468.28856559838704	3382.8632462320797	1101.1545623649663	-474.53214357730036	3352.3051490389507	1091.349777956397	-426.03899548828826	3358.173267091506	1097.1530599441758	-448.06969893952356	3367.603045271904	1095.542871303029	-466.72229871345473	3376.562612188699	1091.1916847654277	-477.56777422305885	3384.8040873346645	1085.9406198449853	-484.50044170358643	3351.731153923442	1085.6496066458296	-428.1652886025421	3356.36336712945	1086.0855671793372	-449.72537745639795	3364.487789976036	1083.57843933882	-466.39126434771555	3373.079765886751	1078.7952510712446	-477.069365120363	3380.805025684478	1073.5801733191815	-483.69054442728594	3351.2329115706057	1078.289136330158	-430.1017325202887	3355.0290209807767	1074.3647337028692	-451.04300584578294	3361.367285496687	1070.6328884456495	-464.93133905023944	3367.5532958791055	1066.3099428253315	-472.98261249673027	3374.349995319054	1061.2102156769217	-478.99904422010894
171	1.417	3446.805	859.65103	-201.189	3491.6424387186325	843.7104829995225	-236.86531644704675	3404.206416064201	441.8256436449666	-267.81054662673984	3484.4780559883307	70.49684304078033	-392.3605682543123	3463.0341682233575	-27.04643629738733	-253.8473250685575	3409.1456693787145	846.9428806716363	-152.07369859326494	3284.6377653166696	456.5665107874052	-69.40983418806593	3213.8726606978053	78.30782317560526	88.74811083359845	3271.807573818166	25.411219804265194	259.8407118480212	3412.656880481616	985.7700348293833	-257.78193025583414	3366.234242573076	1059.5753688991913	-299.50759877558744	3312.535657167713	1132.643070731827	-342.7368036757598	3253.3973838416373	1195.9456025440718	-384.1438566303576	3189.2164363756124	1263.4133552205183	-424.4150867848273	3146.222555823181	1337.080072838695	-386.12040530079514	3124.3928462165327	1428.7943721902798	-260.23712805801273	3218.88001753087	1244.1093580473735	-423.47700507114683	3258.006460942657	1243.6140299969604	-464.6482158726936	3347.3293035680945	1086.3260693143764	-430.15502603394276	3406.701153386643	1078.8007656076425	-496.12040426982924	3414.1654504480684	1102.522978814788	-498.32873173007897	3416.7504947282837	1117.2941597098006	-510.3662139676676	3419.126414462061	1124.5401720574998	-519.0052235482485	3421.5996091486127	1127.979670927971	-526.4262821115914	3417.7573571553967	1094.058441670862	-498.5741332682448	3433.1370301414418	1104.9775051642932	-507.06523614362345	3439.3349418412513	1111.1933763630238	-517.6495560558795	3439.0531067324305	1115.9283919380425	-525.9286292435625	3436.0305979330565	1120.4348153959122	-533.927115593126	3418.573734373037	1085.3426213644684	-499.1973817282489	3434.017470249639	1091.2787503261343	-507.8151340997848	3440.832828237407	1096.874321844478	-519.4252649851288	3440.5178470985547	1102.0172572213696	-529.4427157674801	3437.2228443998156	1106.6711541449765	-538.2086356356943	3418.8106066103655	1078.9025937040608	-499.37692127392455	3433.01069101011	1078.6214218294026	-507.1269429475281	3438.979423457148	1082.2758088202963	-517.2951570537209	3438.6906922826065	1086.5872394764253	-526.9836922285622	3435.599705308033	1090.655370950392	-535.2381417411494	3418.223957423284	1071.1926375748724	-499.685331275492	3431.067868443423	1066.172819060981	-506.8384729823716	3435.8294636642804	1067.192770628216	-515.023428655838	3435.6101805212484	1069.415382418862	-522.1109088643353	3432.867074037159	1072.4883684587796	-529.4348772127378	3201.8931861312394	1240.106723135353	-397.8320362631568	3178.759268176477	1203.1525152543556	-355.0293766130415	3248.801876550013	1101.0385734047472	-440.57089590638816	3349.510354650061	1082.547243908546	-413.3572727587813	3353.04903254711	1105.45140280364	-415.90007290085555	3364.448492785962	1109.3621121059427	-428.9362493064469	3372.207201326783	1109.4931587688382	-439.6239751154637	3378.521418294736	1107.3847015238648	-449.9106086607162	3351.923097027726	1099.694276387683	-421.45119555533125	3358.433467865779	1110.0718031044846	-441.74460450791315	3367.268209744095	1109.631567055728	-458.2768855964657	3374.764673541102	1106.4586595666874	-466.9922496097326	3382.321193773319	1101.876837664263	-473.151829379922	3351.411839612422	1091.918059209205	-425.2365376706517	3357.4840929382344	1097.8360131099978	-447.076926492757	3367.041353248871	1096.2863409593374	-465.5535880865244	3376.0456422072866	1091.9452191371224	-476.2778855290432	3384.2944413723185	1086.6824207945806	-483.119441005303	3350.8409189085373	1086.2222602665538	-427.38311313322623	3355.6597501912643	1086.7656497212283	-448.79084187999706	3363.895767430101	1084.312006551197	-465.3071629576527	3372.531136056292	1079.538919357009	-475.8703874752837	3380.2634035527435	1074.3129932059558	-482.40684957269895	3350.3376331799523	1078.861253000561	-429.347330658055	3354.303016542928	1075.036078987996	-450.1665957051615	3360.7305735279037	1071.3477465237333	-463.94172610055773	3366.948201638083	1067.032498277079	-471.91238358057194	3373.7510890440362	1061.9233509552387	-477.8555984741949
